<mxfile host="Electron" modified="2024-08-28T19:16:48.356Z" agent="Mozilla/5.0 (Windows NT 10.0; Win64; x64) AppleWebKit/537.36 (KHTML, like Gecko) draw.io/24.2.5 Chrome/120.0.6099.109 Electron/28.1.0 Safari/537.36" etag="emPTtfDWI-NllVaOWJp7" version="24.2.5" type="device">
  <diagram name="Page-1" id="9Zn6MzzJ-_WLWPjUa2_8">
    <mxGraphModel dx="2537" dy="993" grid="1" gridSize="10" guides="1" tooltips="1" connect="1" arrows="1" fold="1" page="1" pageScale="1" pageWidth="850" pageHeight="1100" math="0" shadow="0">
      <root>
        <mxCell id="0" />
        <mxCell id="1" parent="0" />
        <mxCell id="sSgqkoee2zxHJaCUHA-R-5" style="edgeStyle=orthogonalEdgeStyle;rounded=1;orthogonalLoop=1;jettySize=auto;html=1;entryX=0;entryY=0.5;entryDx=0;entryDy=0;curved=0;strokeWidth=3;" parent="1" source="sSgqkoee2zxHJaCUHA-R-1" target="sSgqkoee2zxHJaCUHA-R-2" edge="1">
          <mxGeometry relative="1" as="geometry" />
        </mxCell>
        <mxCell id="sSgqkoee2zxHJaCUHA-R-19" style="edgeStyle=orthogonalEdgeStyle;rounded=0;orthogonalLoop=1;jettySize=auto;html=1;entryX=0.5;entryY=1;entryDx=0;entryDy=0;fillColor=#fff2cc;strokeColor=#d6b656;strokeWidth=3;" parent="1" source="sSgqkoee2zxHJaCUHA-R-1" target="sSgqkoee2zxHJaCUHA-R-3" edge="1">
          <mxGeometry relative="1" as="geometry">
            <Array as="points">
              <mxPoint x="145" y="450" />
              <mxPoint x="345" y="450" />
            </Array>
          </mxGeometry>
        </mxCell>
        <mxCell id="sSgqkoee2zxHJaCUHA-R-1" value="&lt;font style=&quot;font-size: 20px;&quot;&gt;&lt;b&gt;C&lt;/b&gt;&lt;/font&gt;" style="ellipse;whiteSpace=wrap;html=1;aspect=fixed;" parent="1" vertex="1">
          <mxGeometry x="120" y="340" width="50" height="50" as="geometry" />
        </mxCell>
        <mxCell id="sSgqkoee2zxHJaCUHA-R-6" style="edgeStyle=orthogonalEdgeStyle;rounded=0;orthogonalLoop=1;jettySize=auto;html=1;strokeWidth=3;" parent="1" source="sSgqkoee2zxHJaCUHA-R-2" target="sSgqkoee2zxHJaCUHA-R-3" edge="1">
          <mxGeometry relative="1" as="geometry" />
        </mxCell>
        <mxCell id="sSgqkoee2zxHJaCUHA-R-2" value="&lt;font style=&quot;font-size: 20px;&quot;&gt;&lt;b&gt;I&lt;/b&gt;&lt;/font&gt;" style="ellipse;whiteSpace=wrap;html=1;aspect=fixed;" parent="1" vertex="1">
          <mxGeometry x="220" y="340" width="50" height="50" as="geometry" />
        </mxCell>
        <mxCell id="sSgqkoee2zxHJaCUHA-R-7" style="edgeStyle=orthogonalEdgeStyle;rounded=0;orthogonalLoop=1;jettySize=auto;html=1;strokeWidth=3;" parent="1" source="sSgqkoee2zxHJaCUHA-R-3" target="sSgqkoee2zxHJaCUHA-R-4" edge="1">
          <mxGeometry relative="1" as="geometry" />
        </mxCell>
        <mxCell id="sSgqkoee2zxHJaCUHA-R-21" style="edgeStyle=orthogonalEdgeStyle;rounded=0;orthogonalLoop=1;jettySize=auto;html=1;strokeWidth=3;fillColor=#fff2cc;strokeColor=#d6b656;" parent="1" source="sSgqkoee2zxHJaCUHA-R-3" target="sSgqkoee2zxHJaCUHA-R-20" edge="1">
          <mxGeometry relative="1" as="geometry">
            <Array as="points">
              <mxPoint x="340" y="310" />
              <mxPoint x="340" y="310" />
            </Array>
          </mxGeometry>
        </mxCell>
        <mxCell id="sSgqkoee2zxHJaCUHA-R-3" value="&lt;font style=&quot;font-size: 20px;&quot;&gt;&lt;b&gt;A&lt;/b&gt;&lt;/font&gt;" style="ellipse;whiteSpace=wrap;html=1;aspect=fixed;" parent="1" vertex="1">
          <mxGeometry x="320" y="340" width="50" height="50" as="geometry" />
        </mxCell>
        <mxCell id="sSgqkoee2zxHJaCUHA-R-4" value="&lt;font style=&quot;font-size: 20px;&quot;&gt;&lt;b&gt;O&lt;/b&gt;&lt;/font&gt;" style="ellipse;whiteSpace=wrap;html=1;aspect=fixed;" parent="1" vertex="1">
          <mxGeometry x="420" y="340" width="50" height="50" as="geometry" />
        </mxCell>
        <mxCell id="sSgqkoee2zxHJaCUHA-R-16" value="&lt;font style=&quot;font-size: 30px;&quot;&gt;CIAO + CASA&lt;/font&gt;" style="text;html=1;strokeColor=none;fillColor=none;align=center;verticalAlign=middle;whiteSpace=wrap;rounded=0;" parent="1" vertex="1">
          <mxGeometry x="-35" y="210" width="255" height="30" as="geometry" />
        </mxCell>
        <mxCell id="sSgqkoee2zxHJaCUHA-R-17" value="" style="endArrow=classic;html=1;rounded=0;" parent="1" edge="1">
          <mxGeometry width="50" height="50" relative="1" as="geometry">
            <mxPoint x="110" y="260" as="sourcePoint" />
            <mxPoint x="280" y="320" as="targetPoint" />
          </mxGeometry>
        </mxCell>
        <mxCell id="sSgqkoee2zxHJaCUHA-R-22" style="edgeStyle=orthogonalEdgeStyle;rounded=0;orthogonalLoop=1;jettySize=auto;html=1;fillColor=#fff2cc;strokeColor=#d6b656;strokeWidth=3;" parent="1" source="sSgqkoee2zxHJaCUHA-R-20" target="sSgqkoee2zxHJaCUHA-R-3" edge="1">
          <mxGeometry relative="1" as="geometry">
            <Array as="points">
              <mxPoint x="350" y="310" />
              <mxPoint x="350" y="310" />
            </Array>
          </mxGeometry>
        </mxCell>
        <mxCell id="sSgqkoee2zxHJaCUHA-R-20" value="&lt;font style=&quot;font-size: 20px;&quot;&gt;&lt;b&gt;S&lt;/b&gt;&lt;/font&gt;" style="ellipse;whiteSpace=wrap;html=1;aspect=fixed;" parent="1" vertex="1">
          <mxGeometry x="320" y="240" width="50" height="50" as="geometry" />
        </mxCell>
        <mxCell id="sSgqkoee2zxHJaCUHA-R-24" value="&lt;font style=&quot;font-size: 15px;&quot;&gt;In questo esempio sono stati create due nuovi oggetti &quot;Association&quot;, ogni colore diverso della linea rappresenta un nuovo oggetto.&lt;br&gt;&lt;br&gt;Possiamo notare che il singolo nodo (NODES) è il minimo che l&#39;input agent può campionare. Nel nostro prototitpo useremo tutte le lettere dell&#39;alfabeto a fini sperimentali.&lt;br&gt;&lt;br&gt;Poi ci sono le connessioni (EDGES), in questo caso ho indicato una rotta nuova associativa con colori differente.&lt;br&gt;&lt;br&gt;Da ogni nuovo oggetto ASSOCIATIVO abbiamo sia il punto di inizio del Nodo e il suo Nodo finale.&lt;br&gt;E sono anche presenti le connessioni al suo interno ai vari nodi&lt;br&gt;&lt;/font&gt;" style="text;html=1;strokeColor=none;fillColor=none;align=center;verticalAlign=middle;whiteSpace=wrap;rounded=0;" parent="1" vertex="1">
          <mxGeometry x="500" y="280" width="340" height="30" as="geometry" />
        </mxCell>
        <mxCell id="8zSK4byTcMpIspI-PGR6-1" style="edgeStyle=orthogonalEdgeStyle;rounded=1;orthogonalLoop=1;jettySize=auto;html=1;entryX=0;entryY=0.5;entryDx=0;entryDy=0;curved=0;strokeWidth=3;" parent="1" source="8zSK4byTcMpIspI-PGR6-3" target="8zSK4byTcMpIspI-PGR6-5" edge="1">
          <mxGeometry relative="1" as="geometry" />
        </mxCell>
        <mxCell id="8zSK4byTcMpIspI-PGR6-2" style="edgeStyle=orthogonalEdgeStyle;rounded=0;orthogonalLoop=1;jettySize=auto;html=1;entryX=0.5;entryY=1;entryDx=0;entryDy=0;fillColor=#fff2cc;strokeColor=#d6b656;strokeWidth=3;" parent="1" source="8zSK4byTcMpIspI-PGR6-3" target="8zSK4byTcMpIspI-PGR6-8" edge="1">
          <mxGeometry relative="1" as="geometry">
            <Array as="points">
              <mxPoint x="120" y="810" />
              <mxPoint x="310" y="810" />
              <mxPoint x="310" y="750" />
            </Array>
          </mxGeometry>
        </mxCell>
        <mxCell id="8zSK4byTcMpIspI-PGR6-14" style="edgeStyle=orthogonalEdgeStyle;rounded=0;orthogonalLoop=1;jettySize=auto;html=1;fillColor=#dae8fc;strokeColor=#6c8ebf;strokeWidth=3;" parent="1" source="8zSK4byTcMpIspI-PGR6-3" target="8zSK4byTcMpIspI-PGR6-8" edge="1">
          <mxGeometry relative="1" as="geometry">
            <Array as="points">
              <mxPoint x="120" y="840" />
              <mxPoint x="330" y="840" />
            </Array>
          </mxGeometry>
        </mxCell>
        <mxCell id="8zSK4byTcMpIspI-PGR6-3" value="&lt;font style=&quot;font-size: 20px;&quot;&gt;&lt;b&gt;C&lt;/b&gt;&lt;/font&gt;" style="ellipse;whiteSpace=wrap;html=1;aspect=fixed;" parent="1" vertex="1">
          <mxGeometry x="95" y="700" width="50" height="50" as="geometry" />
        </mxCell>
        <mxCell id="8zSK4byTcMpIspI-PGR6-4" style="edgeStyle=orthogonalEdgeStyle;rounded=0;orthogonalLoop=1;jettySize=auto;html=1;strokeWidth=3;" parent="1" source="8zSK4byTcMpIspI-PGR6-5" target="8zSK4byTcMpIspI-PGR6-8" edge="1">
          <mxGeometry relative="1" as="geometry" />
        </mxCell>
        <mxCell id="8zSK4byTcMpIspI-PGR6-5" value="&lt;font style=&quot;font-size: 20px;&quot;&gt;&lt;b&gt;I&lt;/b&gt;&lt;/font&gt;" style="ellipse;whiteSpace=wrap;html=1;aspect=fixed;" parent="1" vertex="1">
          <mxGeometry x="195" y="700" width="50" height="50" as="geometry" />
        </mxCell>
        <mxCell id="8zSK4byTcMpIspI-PGR6-6" style="edgeStyle=orthogonalEdgeStyle;rounded=0;orthogonalLoop=1;jettySize=auto;html=1;strokeWidth=3;" parent="1" source="8zSK4byTcMpIspI-PGR6-8" target="8zSK4byTcMpIspI-PGR6-9" edge="1">
          <mxGeometry relative="1" as="geometry" />
        </mxCell>
        <mxCell id="8zSK4byTcMpIspI-PGR6-7" style="edgeStyle=orthogonalEdgeStyle;rounded=0;orthogonalLoop=1;jettySize=auto;html=1;strokeWidth=3;fillColor=#fff2cc;strokeColor=#d6b656;" parent="1" source="8zSK4byTcMpIspI-PGR6-8" target="8zSK4byTcMpIspI-PGR6-13" edge="1">
          <mxGeometry relative="1" as="geometry">
            <Array as="points">
              <mxPoint x="315" y="670" />
              <mxPoint x="315" y="670" />
            </Array>
          </mxGeometry>
        </mxCell>
        <mxCell id="8zSK4byTcMpIspI-PGR6-19" style="edgeStyle=orthogonalEdgeStyle;rounded=0;orthogonalLoop=1;jettySize=auto;html=1;fillColor=#dae8fc;strokeColor=#6c8ebf;strokeWidth=3;" parent="1" source="8zSK4byTcMpIspI-PGR6-8" target="8zSK4byTcMpIspI-PGR6-15" edge="1">
          <mxGeometry relative="1" as="geometry" />
        </mxCell>
        <mxCell id="8zSK4byTcMpIspI-PGR6-8" value="&lt;font style=&quot;font-size: 20px;&quot;&gt;&lt;b&gt;A&lt;/b&gt;&lt;/font&gt;" style="ellipse;whiteSpace=wrap;html=1;aspect=fixed;" parent="1" vertex="1">
          <mxGeometry x="295" y="700" width="50" height="50" as="geometry" />
        </mxCell>
        <mxCell id="8zSK4byTcMpIspI-PGR6-9" value="&lt;font style=&quot;font-size: 20px;&quot;&gt;&lt;b&gt;O&lt;/b&gt;&lt;/font&gt;" style="ellipse;whiteSpace=wrap;html=1;aspect=fixed;" parent="1" vertex="1">
          <mxGeometry x="395" y="700" width="50" height="50" as="geometry" />
        </mxCell>
        <mxCell id="8zSK4byTcMpIspI-PGR6-10" value="&lt;font style=&quot;font-size: 30px;&quot;&gt;CIAO + CASA + CAVERNA&lt;/font&gt;" style="text;html=1;strokeColor=none;fillColor=none;align=center;verticalAlign=middle;whiteSpace=wrap;rounded=0;" parent="1" vertex="1">
          <mxGeometry x="-60" y="550" width="255" height="30" as="geometry" />
        </mxCell>
        <mxCell id="8zSK4byTcMpIspI-PGR6-11" value="" style="endArrow=classic;html=1;rounded=0;" parent="1" edge="1">
          <mxGeometry width="50" height="50" relative="1" as="geometry">
            <mxPoint x="85" y="620" as="sourcePoint" />
            <mxPoint x="255" y="680" as="targetPoint" />
          </mxGeometry>
        </mxCell>
        <mxCell id="8zSK4byTcMpIspI-PGR6-12" style="edgeStyle=orthogonalEdgeStyle;rounded=0;orthogonalLoop=1;jettySize=auto;html=1;fillColor=#fff2cc;strokeColor=#d6b656;strokeWidth=3;" parent="1" source="8zSK4byTcMpIspI-PGR6-13" target="8zSK4byTcMpIspI-PGR6-8" edge="1">
          <mxGeometry relative="1" as="geometry">
            <Array as="points">
              <mxPoint x="325" y="670" />
              <mxPoint x="325" y="670" />
            </Array>
          </mxGeometry>
        </mxCell>
        <mxCell id="8zSK4byTcMpIspI-PGR6-13" value="&lt;font style=&quot;font-size: 20px;&quot;&gt;&lt;b&gt;S&lt;/b&gt;&lt;/font&gt;" style="ellipse;whiteSpace=wrap;html=1;aspect=fixed;" parent="1" vertex="1">
          <mxGeometry x="295" y="600" width="50" height="50" as="geometry" />
        </mxCell>
        <mxCell id="8zSK4byTcMpIspI-PGR6-20" style="edgeStyle=orthogonalEdgeStyle;rounded=0;orthogonalLoop=1;jettySize=auto;html=1;fillColor=#dae8fc;strokeColor=#6c8ebf;strokeWidth=3;" parent="1" source="8zSK4byTcMpIspI-PGR6-15" target="8zSK4byTcMpIspI-PGR6-16" edge="1">
          <mxGeometry relative="1" as="geometry" />
        </mxCell>
        <mxCell id="8zSK4byTcMpIspI-PGR6-15" value="&lt;font style=&quot;font-size: 20px;&quot;&gt;&lt;b&gt;V&lt;/b&gt;&lt;/font&gt;" style="ellipse;whiteSpace=wrap;html=1;aspect=fixed;" parent="1" vertex="1">
          <mxGeometry x="295" y="860" width="50" height="50" as="geometry" />
        </mxCell>
        <mxCell id="8zSK4byTcMpIspI-PGR6-21" style="edgeStyle=orthogonalEdgeStyle;rounded=0;orthogonalLoop=1;jettySize=auto;html=1;fillColor=#dae8fc;strokeColor=#6c8ebf;strokeWidth=3;" parent="1" source="8zSK4byTcMpIspI-PGR6-16" target="8zSK4byTcMpIspI-PGR6-17" edge="1">
          <mxGeometry relative="1" as="geometry" />
        </mxCell>
        <mxCell id="8zSK4byTcMpIspI-PGR6-16" value="&lt;font style=&quot;font-size: 20px;&quot;&gt;&lt;b&gt;E&lt;/b&gt;&lt;/font&gt;" style="ellipse;whiteSpace=wrap;html=1;aspect=fixed;" parent="1" vertex="1">
          <mxGeometry x="390" y="860" width="50" height="50" as="geometry" />
        </mxCell>
        <mxCell id="8zSK4byTcMpIspI-PGR6-22" style="edgeStyle=orthogonalEdgeStyle;rounded=0;orthogonalLoop=1;jettySize=auto;html=1;fillColor=#dae8fc;strokeColor=#6c8ebf;strokeWidth=3;" parent="1" source="8zSK4byTcMpIspI-PGR6-17" target="8zSK4byTcMpIspI-PGR6-18" edge="1">
          <mxGeometry relative="1" as="geometry" />
        </mxCell>
        <mxCell id="8zSK4byTcMpIspI-PGR6-17" value="&lt;font style=&quot;font-size: 20px;&quot;&gt;&lt;b&gt;R&lt;/b&gt;&lt;/font&gt;" style="ellipse;whiteSpace=wrap;html=1;aspect=fixed;" parent="1" vertex="1">
          <mxGeometry x="490" y="860" width="50" height="50" as="geometry" />
        </mxCell>
        <mxCell id="8zSK4byTcMpIspI-PGR6-23" style="edgeStyle=orthogonalEdgeStyle;rounded=0;orthogonalLoop=1;jettySize=auto;html=1;fillColor=#dae8fc;strokeColor=#6c8ebf;strokeWidth=3;" parent="1" source="8zSK4byTcMpIspI-PGR6-18" target="8zSK4byTcMpIspI-PGR6-8" edge="1">
          <mxGeometry relative="1" as="geometry">
            <Array as="points">
              <mxPoint x="615" y="690" />
              <mxPoint x="340" y="690" />
            </Array>
          </mxGeometry>
        </mxCell>
        <mxCell id="8zSK4byTcMpIspI-PGR6-18" value="&lt;font style=&quot;font-size: 20px;&quot;&gt;&lt;b&gt;N&lt;/b&gt;&lt;/font&gt;" style="ellipse;whiteSpace=wrap;html=1;aspect=fixed;" parent="1" vertex="1">
          <mxGeometry x="590" y="860" width="50" height="50" as="geometry" />
        </mxCell>
        <mxCell id="8zSK4byTcMpIspI-PGR6-26" value="&lt;font style=&quot;font-size: 15px;&quot;&gt;In questo caso &quot;CIAO&quot;, &quot;CASA&quot; e &quot;CAVERNA&quot;&lt;br&gt;non avrebbero nessun valore associativo in un contesto simile.&amp;nbsp;&lt;br&gt;&lt;br&gt;Quindi devo definire una sorta di peso sui vari input che arrivano in un colpo di clock&lt;br&gt;&lt;/font&gt;" style="text;html=1;strokeColor=none;fillColor=none;align=center;verticalAlign=middle;whiteSpace=wrap;rounded=0;" parent="1" vertex="1">
          <mxGeometry x="-280" y="760" width="340" height="30" as="geometry" />
        </mxCell>
        <mxCell id="ibXGosaGtzs4-CQfldmI-1" value="10" style="text;html=1;strokeColor=none;fillColor=none;align=center;verticalAlign=middle;whiteSpace=wrap;rounded=0;" parent="1" vertex="1">
          <mxGeometry x="135" y="690" width="60" height="30" as="geometry" />
        </mxCell>
        <mxCell id="ibXGosaGtzs4-CQfldmI-2" value="10" style="text;html=1;strokeColor=none;fillColor=none;align=center;verticalAlign=middle;whiteSpace=wrap;rounded=0;" parent="1" vertex="1">
          <mxGeometry x="235" y="690" width="60" height="30" as="geometry" />
        </mxCell>
        <mxCell id="ibXGosaGtzs4-CQfldmI-3" value="10" style="text;html=1;strokeColor=none;fillColor=none;align=center;verticalAlign=middle;whiteSpace=wrap;rounded=0;" parent="1" vertex="1">
          <mxGeometry x="335" y="700" width="60" height="30" as="geometry" />
        </mxCell>
        <mxCell id="ibXGosaGtzs4-CQfldmI-4" value="10" style="text;html=1;strokeColor=none;fillColor=none;align=center;verticalAlign=middle;whiteSpace=wrap;rounded=0;" parent="1" vertex="1">
          <mxGeometry x="260" y="660" width="60" height="30" as="geometry" />
        </mxCell>
        <mxCell id="ibXGosaGtzs4-CQfldmI-5" value="10" style="text;html=1;strokeColor=none;fillColor=none;align=center;verticalAlign=middle;whiteSpace=wrap;rounded=0;" parent="1" vertex="1">
          <mxGeometry x="320" y="660" width="60" height="30" as="geometry" />
        </mxCell>
        <mxCell id="ibXGosaGtzs4-CQfldmI-6" value="10" style="text;html=1;strokeColor=none;fillColor=none;align=center;verticalAlign=middle;whiteSpace=wrap;rounded=0;" parent="1" vertex="1">
          <mxGeometry x="200" y="780" width="60" height="30" as="geometry" />
        </mxCell>
        <mxCell id="ibXGosaGtzs4-CQfldmI-7" value="10" style="text;html=1;strokeColor=none;fillColor=none;align=center;verticalAlign=middle;whiteSpace=wrap;rounded=0;" parent="1" vertex="1">
          <mxGeometry x="200" y="840" width="60" height="30" as="geometry" />
        </mxCell>
        <mxCell id="ibXGosaGtzs4-CQfldmI-8" value="10" style="text;html=1;strokeColor=none;fillColor=none;align=center;verticalAlign=middle;whiteSpace=wrap;rounded=0;" parent="1" vertex="1">
          <mxGeometry x="320" y="780" width="60" height="30" as="geometry" />
        </mxCell>
        <mxCell id="ibXGosaGtzs4-CQfldmI-9" value="10" style="text;html=1;strokeColor=none;fillColor=none;align=center;verticalAlign=middle;whiteSpace=wrap;rounded=0;" parent="1" vertex="1">
          <mxGeometry x="335" y="850" width="60" height="30" as="geometry" />
        </mxCell>
        <mxCell id="ibXGosaGtzs4-CQfldmI-10" value="10" style="text;html=1;strokeColor=none;fillColor=none;align=center;verticalAlign=middle;whiteSpace=wrap;rounded=0;" parent="1" vertex="1">
          <mxGeometry x="430" y="850" width="60" height="30" as="geometry" />
        </mxCell>
        <mxCell id="ibXGosaGtzs4-CQfldmI-11" value="10" style="text;html=1;strokeColor=none;fillColor=none;align=center;verticalAlign=middle;whiteSpace=wrap;rounded=0;" parent="1" vertex="1">
          <mxGeometry x="530" y="860" width="60" height="30" as="geometry" />
        </mxCell>
        <mxCell id="ibXGosaGtzs4-CQfldmI-12" value="10" style="text;html=1;strokeColor=none;fillColor=none;align=center;verticalAlign=middle;whiteSpace=wrap;rounded=0;" parent="1" vertex="1">
          <mxGeometry x="510" y="660" width="60" height="30" as="geometry" />
        </mxCell>
        <mxCell id="ibXGosaGtzs4-CQfldmI-14" value="&lt;font style=&quot;font-size: 15px;&quot;&gt;Siccome queste 3 informazioni avvengono in un tempo brevissimo li assegniamo 10 a tutti.&lt;br&gt;&lt;br&gt;E questo valore andrà a calare col tempo. Il calare del valore deve essere proporazionale in qualche al clock.&lt;br&gt;&lt;br&gt;Quindi fare in qualche modo che quando un carattere viene invocato devo controllare tutte le varie associazioni già presenti e riassegnarli il parametro di importanza. Tutto ciò avviene nella buffer memory, una volta saldato dopo le 24 ore rimarrà fisso nella Memory&lt;br&gt;&lt;/font&gt;" style="text;html=1;strokeColor=none;fillColor=none;align=center;verticalAlign=middle;whiteSpace=wrap;rounded=0;" parent="1" vertex="1">
          <mxGeometry x="-60" y="980" width="340" height="30" as="geometry" />
        </mxCell>
        <mxCell id="ibXGosaGtzs4-CQfldmI-16" value="&lt;font style=&quot;font-size: 15px;&quot;&gt;E poi dovrei mettere che se ci sono più edges scegliere un valore da darli al parametro di importanza&lt;/font&gt;" style="text;html=1;strokeColor=none;fillColor=none;align=center;verticalAlign=middle;whiteSpace=wrap;rounded=0;" parent="1" vertex="1">
          <mxGeometry x="395" y="940" width="290" height="30" as="geometry" />
        </mxCell>
        <mxCell id="ibXGosaGtzs4-CQfldmI-17" value="&lt;font style=&quot;font-size: 15px;&quot;&gt;Oppure mettere quando un nuovo collegamento è vicino temporaleamente a quello precedente darli un parametro aggiuntivo? tra i collegamenti attuali esistente? Tipo un timestamp la quale faccio un collegamento con quelli vicini&lt;/font&gt;" style="text;html=1;strokeColor=none;fillColor=none;align=center;verticalAlign=middle;whiteSpace=wrap;rounded=0;" parent="1" vertex="1">
          <mxGeometry x="335" y="1040" width="485" height="30" as="geometry" />
        </mxCell>
        <mxCell id="LJoY5Km2I70--hcLrEQs-1" value="&lt;div style=&quot;text-align: center;&quot;&gt;&lt;span style=&quot;background-color: initial; font-size: 15px;&quot;&gt;Ogni colore rappresenta l&#39;oggetto &#39;Intersication&#39;, e in questo oggetto ci sono&amp;nbsp;&lt;/span&gt;&lt;/div&gt;&lt;div style=&quot;text-align: center;&quot;&gt;&lt;span style=&quot;font-size: 15px;&quot;&gt;I riferimenti in modo ordinato e le varie collegamenti extra con altri Interstication&lt;/span&gt;&lt;/div&gt;" style="text;whiteSpace=wrap;html=1;" vertex="1" parent="1">
          <mxGeometry x="-450" y="310" width="560" height="250" as="geometry" />
        </mxCell>
      </root>
    </mxGraphModel>
  </diagram>
</mxfile>
